<?xml version="1.0" encoding="UTF-8" standalone="no"?>
<!-- Uploaded to: SVG Repo, www.svgrepo.com, Generator: SVG Repo Mixer Tools -->

<svg
   width="800px"
   height="800px"
   viewBox="0 0 400 400"
   version="1.1"
   id="svg6"
   sodipodi:docname="file-icon.svg"
   inkscape:version="1.3 (0e150ed6c4, 2023-07-21)"
   xmlns:inkscape="http://www.inkscape.org/namespaces/inkscape"
   xmlns:sodipodi="http://sodipodi.sourceforge.net/DTD/sodipodi-0.dtd"
   xmlns="http://www.w3.org/2000/svg"
   xmlns:svg="http://www.w3.org/2000/svg">
  <sodipodi:namedview
     id="namedview6"
     pagecolor="#505050"
     bordercolor="#eeeeee"
     borderopacity="1"
     inkscape:showpageshadow="0"
     inkscape:pageopacity="0"
     inkscape:pagecheckerboard="0"
     inkscape:deskcolor="#505050"
     inkscape:zoom="0.468125"
     inkscape:cx="139.91989"
     inkscape:cy="659.01202"
     inkscape:window-width="1680"
     inkscape:window-height="987"
     inkscape:window-x="-8"
     inkscape:window-y="-8"
     inkscape:window-maximized="1"
     inkscape:current-layer="xxx-file" />
  <defs
     id="defs1">
    <style
       id="style1">.cls-1{fill:#101010;}</style>
  </defs>
  <title
     id="title1" />
  <g
     id="xxx-file">
    <path
       style="fill:#48484c;stroke-width:0.486"
       d="M 93.99199,25.100133 77.43658,38.451268 76.902535,358.34446 87.0494,371.6956 l 217.89052,3.20427 16.02136,-6.40855 8.54473,-166.08811 L 324.6996,100.93458 296.92924,72.09613 246.19493,25.634179 Z"
       id="path7"
       inkscape:label="color fill" />
    <path
       class="cls-1"
       d="M325,105H250a5,5,0,0,1-5-5V25a5,5,0,0,1,10,0V95h70a5,5,0,0,1,0,10Z"
       id="path1" />
    <path
       class="cls-1"
       d="M300,380H100a30,30,0,0,1-30-30V50a30,30,0,0,1,30-30H250a5,5,0,0,1,3.54,1.46l75,75A5,5,0,0,1,330,100V350A30,30,0,0,1,300,380ZM100,30A20,20,0,0,0,80,50V350a20,20,0,0,0,20,20H300a20,20,0,0,0,20-20V102.07L247.93,30Z"
       id="path2" />
    <g
       id="g7"
       inkscape:label="ZPL"
       transform="matrix(1.7413807,0,0,1.7413807,-117.7799,7.9029342)"
       style="stroke-width:0.574257">
      <rect
         style="fill:#ff794a;fill-opacity:1;stroke:none;stroke-width:0.189571"
         id="rect1"
         width="85"
         height="5"
         x="139.98732"
         y="125.84403"
         inkscape:label="orange line" />
      <rect
         style="fill:#ff794a;fill-opacity:1;stroke:none;stroke-width:0.189571"
         id="rect1-9"
         width="85"
         height="5"
         x="139.98732"
         y="89.782127"
         inkscape:label="orange line" />
      <g
         id="g2"
         inkscape:label="barcode bot"
         transform="matrix(0.5,0,0,0.57660435,118.48732,86.73464)"
         style="stroke-width:0.574257">
        <rect
           style="fill:#f0f0f7;fill-opacity:1;stroke:none;stroke-width:0.48334"
           id="rect2"
           width="16"
           height="34.685829"
           x="60"
           y="80" />
        <rect
           style="fill:#f0f0f7;fill-opacity:1;stroke:none;stroke-width:0.48334"
           id="rect2-5"
           width="16"
           height="34.685829"
           x="104"
           y="80" />
        <rect
           style="fill:#f0f0f7;fill-opacity:1;stroke:none;stroke-width:0.341773"
           id="rect2-2"
           width="8"
           height="34.685829"
           x="80"
           y="80" />
        <rect
           style="fill:#f0f0f7;fill-opacity:1;stroke:none;stroke-width:0.341773"
           id="rect2-2-1"
           width="8"
           height="34.685829"
           x="92"
           y="80" />
        <rect
           style="fill:#f0f0f7;fill-opacity:1;stroke:none;stroke-width:0.341773"
           id="rect2-2-1-4"
           width="8"
           height="34.685829"
           x="124"
           y="80" />
        <rect
           style="fill:#f0f0f7;fill-opacity:1;stroke:none;stroke-width:0.341773"
           id="rect2-2-1-4-0"
           width="8"
           height="34.685829"
           x="136"
           y="80" />
        <rect
           style="fill:#f0f0f7;fill-opacity:1;stroke:none;stroke-width:0.341773"
           id="rect2-2-1-4-0-4"
           width="8"
           height="34.685829"
           x="148"
           y="80" />
        <rect
           style="fill:#f0f0f7;fill-opacity:1;stroke:none;stroke-width:0.591967"
           id="rect2-5-6"
           width="24"
           height="34.685829"
           x="160"
           y="80" />
        <rect
           style="fill:#f0f0f7;fill-opacity:1;stroke:none;stroke-width:0.341773"
           id="rect2-2-1-4-0-4-5"
           width="8"
           height="34.685829"
           x="188"
           y="80.000267" />
      </g>
      <text
         xml:space="preserve"
         style="font-size:48px;font-family:Calibri;-inkscape-font-specification:Calibri;letter-spacing:0.5px;fill:#f0f0f7;fill-opacity:1;stroke:none;stroke-width:0.279089"
         x="137.73131"
         y="123.82508"
         id="text2"><tspan
           sodipodi:role="line"
           id="tspan2"
           x="137.73131"
           y="123.82508"
           style="font-style:normal;font-variant:normal;font-weight:normal;font-stretch:normal;font-size:48px;font-family:'Miriam Mono CLM';-inkscape-font-specification:'Miriam Mono CLM';stroke-width:0.279089">ZPL</tspan></text>
      <g
         id="g12"
         inkscape:label="barcode top"
         transform="matrix(0.5,0,0,0.57660435,118.48732,21.634667)"
         style="stroke-width:0.574257">
        <rect
           style="fill:#f0f0f7;fill-opacity:1;stroke:none;stroke-width:0.48334"
           id="rect4"
           width="16"
           height="34.685829"
           x="60"
           y="80" />
        <rect
           style="fill:#f0f0f7;fill-opacity:1;stroke:none;stroke-width:0.48334"
           id="rect5"
           width="16"
           height="34.685829"
           x="104"
           y="80" />
        <rect
           style="fill:#f0f0f7;fill-opacity:1;stroke:none;stroke-width:0.341773"
           id="rect6"
           width="8"
           height="34.685829"
           x="80"
           y="80" />
        <rect
           style="fill:#f0f0f7;fill-opacity:1;stroke:none;stroke-width:0.341773"
           id="rect7"
           width="8"
           height="34.685829"
           x="92"
           y="80" />
        <rect
           style="fill:#f0f0f7;fill-opacity:1;stroke:none;stroke-width:0.341773"
           id="rect8"
           width="8"
           height="34.685829"
           x="124"
           y="80" />
        <rect
           style="fill:#f0f0f7;fill-opacity:1;stroke:none;stroke-width:0.341773"
           id="rect9"
           width="8"
           height="34.685829"
           x="136"
           y="80" />
        <rect
           style="fill:#f0f0f7;fill-opacity:1;stroke:none;stroke-width:0.341773"
           id="rect10"
           width="8"
           height="34.685829"
           x="148"
           y="80" />
        <rect
           style="fill:#f0f0f7;fill-opacity:1;stroke:none;stroke-width:0.591967"
           id="rect11"
           width="24"
           height="34.685829"
           x="160"
           y="80" />
        <rect
           style="fill:#f0f0f7;fill-opacity:1;stroke:none;stroke-width:0.341773"
           id="rect12"
           width="8"
           height="34.685829"
           x="188"
           y="80.000267" />
      </g>
    </g>
  </g>
</svg>
